ply
format ascii 1.0
element vertex 703
property float x
property float y
property float z
element face 648
property list uchar int vertex_index
end_header

2.0 3.0 10.0
2.0 3.0 10.0
2.0 3.0 10.0
2.0 3.0 10.0
2.0 3.0 10.0
2.0 3.0 10.0
2.0 3.0 10.0
2.0 3.0 10.0
2.0 3.0 10.0
2.0 3.0 10.0
2.0 3.0 10.0
2.0 3.0 10.0
2.0 3.0 10.0
2.0 3.0 10.0
2.0 3.0 10.0
2.0 3.0 10.0
2.0 3.0 10.0
2.0 3.0 10.0
2.0 3.0 10.0
2.0 3.0 10.0
2.0 3.0 10.0
2.0 3.0 10.0
2.0 3.0 10.0
2.0 3.0 10.0
2.0 3.0 10.0
2.0 3.0 10.0
2.0 3.0 10.0
2.0 3.0 10.0
2.0 3.0 10.0
2.0 3.0 10.0
2.0 3.0 10.0
2.0 3.0 10.0
2.0 3.0 10.0
2.0 3.0 10.0
2.0 3.0 10.0
2.0 3.0 10.0
2.0 3.0 10.0
2.8682408883346517 3.0 9.92403876506104
2.8550503583141715 3.150768448035229 9.92403876506104
2.815879555832674 3.2969558730694235 9.92403876506104
2.7519186659021764 3.4341204441673256 9.92403876506104
2.665111107797445 3.558094485244748 9.92403876506104
2.558094485244748 3.665111107797445 9.92403876506104
2.434120444167326 3.7519186659021764 9.92403876506104
2.2969558730694235 3.815879555832674 9.92403876506104
2.150768448035229 3.8550503583141715 9.92403876506104
2.0 3.8682408883346517 9.92403876506104
1.849231551964771 3.8550503583141715 9.92403876506104
1.7030441269305765 3.815879555832674 9.92403876506104
1.5658795558326744 3.7519186659021764 9.92403876506104
1.4419055147552517 3.665111107797445 9.92403876506104
1.3348888922025552 3.5580944852447485 9.92403876506104
1.2480813340978236 3.4341204441673256 9.92403876506104
1.184120444167326 3.2969558730694235 9.92403876506104
1.1449496416858285 3.150768448035229 9.92403876506104
1.1317591116653483 3.0 9.92403876506104
1.1449496416858285 2.849231551964771 9.92403876506104
1.184120444167326 2.7030441269305765 9.92403876506104
1.2480813340978236 2.565879555832674 9.92403876506104
1.334888892202555 2.441905514755252 9.92403876506104
1.4419055147552515 2.3348888922025552 9.92403876506104
1.565879555832674 2.248081334097824 9.92403876506104
1.7030441269305767 2.184120444167326 9.92403876506104
1.849231551964771 2.1449496416858285 9.92403876506104
1.9999999999999998 2.1317591116653483 9.92403876506104
2.1507684480352287 2.1449496416858285 9.92403876506104
2.2969558730694235 2.184120444167326 9.92403876506104
2.434120444167326 2.2480813340978236 9.92403876506104
2.558094485244748 2.334888892202555 9.92403876506104
2.6651111077974448 2.4419055147552515 9.92403876506104
2.751918665902176 2.565879555832674 9.92403876506104
2.815879555832674 2.7030441269305765 9.92403876506104
2.8550503583141715 2.849231551964771 9.92403876506104
2.8682408883346517 3.0 9.92403876506104
3.7101007166283435 3.0 9.698463103929543
3.6841204441673256 3.2969558730694235 9.698463103929543
3.6069690242163484 3.584888892202555 9.698463103929543
3.480990663630119 3.8550503583141715 9.698463103929543
3.310013151146925 4.09923155196477 9.698463103929543
3.099231551964771 4.310013151146925 9.698463103929543
2.855050358314172 4.480990663630119 9.698463103929543
2.584888892202555 4.606969024216348 9.698463103929543
2.2969558730694235 4.684120444167325 9.698463103929543
2.0 4.710100716628343 9.698463103929543
1.7030441269305765 4.684120444167325 9.698463103929543
1.4151111077974452 4.606969024216348 9.698463103929543
1.1449496416858285 4.480990663630119 9.698463103929543
0.9007684480352292 4.310013151146925 9.698463103929543
0.6899868488530756 4.099231551964771 9.698463103929543
0.5190093363698809 3.8550503583141715 9.698463103929543
0.39303097578365187 3.5848888922025552 9.698463103929543
0.31587955583267435 3.2969558730694235 9.698463103929543
0.2898992833716565 3.0 9.698463103929543
0.31587955583267435 2.7030441269305765 9.698463103929543
0.39303097578365165 2.415111107797445 9.698463103929543
0.5190093363698811 2.144949641685828 9.698463103929543
0.6899868488530754 1.9007684480352294 9.698463103929543
0.9007684480352289 1.6899868488530756 9.698463103929543
1.1449496416858276 1.5190093363698813 9.698463103929543
1.4151111077974454 1.3930309757836516 9.698463103929543
1.7030441269305765 1.3158795558326744 9.698463103929543
1.9999999999999998 1.2898992833716565 9.698463103929543
2.2969558730694226 1.3158795558326741 9.698463103929543
2.5848888922025552 1.3930309757836519 9.698463103929543
2.855050358314172 1.5190093363698811 9.698463103929543
3.0992315519647704 1.6899868488530752 9.698463103929543
3.310013151146924 1.9007684480352287 9.698463103929543
3.4809906636301187 2.1449496416858276 9.698463103929543
3.6069690242163484 2.415111107797445 9.698463103929543
3.6841204441673256 2.7030441269305765 9.698463103929543
3.7101007166283435 2.9999999999999996 9.698463103929543
4.5 3.0 9.330127018922195
4.462019382530519 3.4341204441673256 9.330127018922195
4.34923155196477 3.8550503583141715 9.330127018922195
4.165063509461096 4.25 9.330127018922195
3.9151111077974448 4.6069690242163475 9.330127018922195
3.6069690242163484 4.915111107797445 9.330127018922195
3.25 5.1650635094610955 9.330127018922195
2.855050358314172 5.34923155196477 9.330127018922195
2.434120444167326 5.462019382530519 9.330127018922195
2.0 5.5 9.330127018922195
1.5658795558326744 5.462019382530519 9.330127018922195
1.1449496416858285 5.34923155196477 9.330127018922195
0.7500000000000007 5.165063509461096 9.330127018922195
0.39303097578365187 4.915111107797445 9.330127018922195
0.08488889220255569 4.606969024216348 9.330127018922195
-0.16506350946109638 4.25 9.330127018922195
-0.3492315519647704 3.855050358314172 9.330127018922195
-0.46201938253051944 3.4341204441673256 9.330127018922195
-0.49999999999999956 3.0000000000000004 9.330127018922195
-0.46201938253051944 2.565879555832674 9.330127018922195
-0.34923155196477085 2.1449496416858285 9.330127018922195
-0.16506350946109594 1.75 9.330127018922195
0.08488889220255524 1.393030975783652 9.330127018922195
0.39303097578365165 1.0848888922025557 9.330127018922195
0.7499999999999991 0.8349364905389045 9.330127018922195
1.144949641685829 0.6507684480352292 9.330127018922195
1.5658795558326744 0.5379806174694806 9.330127018922195
1.9999999999999996 0.5000000000000004 9.330127018922195
2.4341204441673248 0.5379806174694801 9.330127018922195
2.8550503583141724 0.6507684480352296 9.330127018922195
3.25 0.8349364905389041 9.330127018922195
3.606969024216348 1.084888892202555 9.330127018922195
3.9151111077974443 1.3930309757836514 9.330127018922195
4.1650635094610955 1.7499999999999991 9.330127018922195
4.34923155196477 2.1449496416858285 9.330127018922195
4.462019382530519 2.565879555832674 9.330127018922195
4.5 2.9999999999999996 9.330127018922195
5.213938048432697 3.0 8.83022221559489
5.165111107797445 3.558094485244748 8.83022221559489
5.020113867775269 4.09923155196477 8.83022221559489
4.7833519961320965 4.6069690242163475 8.83022221559489
4.46201938253052 5.065879555832673 8.83022221559489
4.065879555832674 5.46201938253052 8.83022221559489
3.6069690242163484 5.7833519961320965 8.83022221559489
3.0992315519647713 6.020113867775268 8.83022221559489
2.5580944852447485 6.165111107797445 8.83022221559489
2.0 6.213938048432697 8.83022221559489
1.441905514755252 6.165111107797445 8.83022221559489
0.9007684480352292 6.020113867775269 8.83022221559489
0.39303097578365254 5.7833519961320965 8.83022221559489
-0.06587955583267391 5.46201938253052 8.83022221559489
-0.46201938253051944 5.065879555832675 8.83022221559489
-0.7833519961320965 4.6069690242163475 8.83022221559489
-1.020113867775268 4.099231551964771 8.83022221559489
-1.1651111077974448 3.558094485244748 8.83022221559489
-1.2139380484326963 3.0000000000000004 8.83022221559489
-1.1651111077974448 2.4419055147552515 8.83022221559489
-1.0201138677752684 1.9007684480352294 8.83022221559489
-0.7833519961320965 1.3930309757836514 8.83022221559489
-0.4620193825305199 0.9341204441673265 8.83022221559489
-0.06587955583267435 0.5379806174694806 8.83022221559489
0.39303097578365054 0.2166480038679044 8.83022221559489
0.9007684480352298 -0.020113867775268357 8.83022221559489
1.441905514755252 -0.16511110779744476 8.83022221559489
1.9999999999999993 -0.21393804843269626 8.83022221559489
2.558094485244747 -0.16511110779744476 8.83022221559489
3.0992315519647717 -0.020113867775267913 8.83022221559489
3.6069690242163484 0.2166480038679035 8.83022221559489
4.065879555832673 0.5379806174694797 8.83022221559489
4.462019382530519 0.9341204441673252 8.83022221559489
4.783351996132096 1.3930309757836505 8.83022221559489
5.020113867775269 1.9007684480352296 8.83022221559489
5.165111107797445 2.4419055147552515 8.83022221559489
5.213938048432697 2.999999999999999 8.83022221559489
5.83022221559489 3.0 8.213938048432697
5.772032533677445 3.665111107797445 8.213938048432697
5.59923155196477 4.310013151146925 8.213938048432697
5.317069740844692 4.915111107797445 8.213938048432697
4.934120444167325 5.46201938253052 8.213938048432697
4.462019382530521 5.934120444167325 8.213938048432697
3.915111107797445 6.317069740844691 8.213938048432697
3.310013151146925 6.59923155196477 8.213938048432697
2.665111107797445 6.772032533677445 8.213938048432697
2.0000000000000004 6.83022221559489 8.213938048432697
1.3348888922025552 6.772032533677445 8.213938048432697
0.6899868488530754 6.59923155196477 8.213938048432697
0.08488889220255591 6.317069740844692 8.213938048432697
-0.46201938253052033 5.934120444167325 8.213938048432697
-0.9341204441673252 5.462019382530521 8.213938048432697
-1.3170697408446919 4.915111107797445 8.213938048432697
-1.5992315519647704 4.310013151146926 8.213938048432697
-1.7720325336774447 3.6651111077974448 8.213938048432697
-1.83022221559489 3.0000000000000004 8.213938048432697
-1.7720325336774447 2.3348888922025544 8.213938048432697
-1.5992315519647708 1.6899868488530756 8.213938048432697
-1.3170697408446914 1.0848888922025546 8.213938048432697
-0.9341204441673256 0.5379806174694801 8.213938048432697
-0.4620193825305208 0.0658795558326748 8.213938048432697
0.08488889220255325 -0.31706974084469053 8.213938048432697
0.689986848853076 -0.5992315519647708 8.213938048432697
1.334888892202555 -0.7720325336774447 8.213938048432697
1.9999999999999993 -0.83022221559489 8.213938048432697
2.6651111077974434 -0.7720325336774452 8.213938048432697
3.3100131511469257 -0.5992315519647704 8.213938048432697
3.915111107797445 -0.3170697408446914 8.213938048432697
4.46201938253052 0.06587955583267391 8.213938048432697
4.934120444167325 0.5379806174694788 8.213938048432697
5.3170697408446905 1.0848888922025532 8.213938048432697
5.59923155196477 1.6899868488530758 8.213938048432697
5.772032533677445 2.334888892202555 8.213938048432697
5.83022221559489 2.999999999999999 8.213938048432697
6.330127018922193 3.0 7.5
6.264342659762216 3.7519186659021764 7.5
6.068988406746868 4.480990663630119 7.5
5.75 5.1650635094610955 7.5
5.317069740844691 5.783351996132096 7.5
4.7833519961320965 6.317069740844691 7.5
4.165063509461097 6.75 7.5
3.4809906636301196 7.068988406746867 7.5
2.751918665902177 7.264342659762216 7.5
2.0000000000000004 7.330127018922193 7.5
1.2480813340978238 7.264342659762216 7.5
0.5190093363698811 7.068988406746868 7.5
-0.1650635094610955 6.75 7.5
-0.7833519961320965 6.317069740844691 7.5
-1.317069740844691 5.783351996132097 7.5
-1.75 5.1650635094610955 7.5
-2.0689884067468673 4.48099066363012 7.5
-2.2643426597622156 3.751918665902176 7.5
-2.3301270189221928 3.0000000000000004 7.5
-2.2643426597622156 2.248081334097823 7.5
-2.0689884067468682 1.5190093363698813 7.5
-1.7499999999999996 0.8349364905389032 7.5
-1.3170697408446914 0.21664800386790395 7.5
-0.7833519961320974 -0.317069740844691 7.5
-0.16506350946109816 -0.7499999999999982 7.5
0.5190093363698818 -1.0689884067468682 7.5
1.2480813340978236 -1.2643426597622156 7.5
1.9999999999999991 -1.3301270189221928 7.5
2.7519186659021746 -1.2643426597622156 7.5
3.48099066363012 -1.0689884067468673 7.5
4.165063509461097 -0.7499999999999996 7.5
4.783351996132096 -0.31706974084469186 7.5
5.3170697408446905 0.21664800386790217 7.5
5.749999999999998 0.8349364905389018 7.5
6.068988406746868 1.5190093363698816 7.5
6.264342659762216 2.248081334097823 7.5
6.330127018922193 2.999999999999999 7.5
6.698463103929542 3.0 6.710100716628344
6.627082891991616 3.815879555832674 6.710100716628344
6.415111107797445 4.606969024216348 6.710100716628344
6.068988406746868 5.34923155196477 6.710100716628344
5.59923155196477 6.020113867775268 6.710100716628344
5.020113867775269 6.59923155196477 6.710100716628344
4.349231551964771 7.068988406746868 6.710100716628344
3.6069690242163484 7.415111107797444 6.710100716628344
2.8158795558326744 7.627082891991616 6.710100716628344
2.0000000000000004 7.698463103929542 6.710100716628344
1.184120444167326 7.627082891991616 6.710100716628344
0.39303097578365187 7.415111107797445 6.710100716628344
-0.34923155196476996 7.068988406746868 6.710100716628344
-1.0201138677752684 6.59923155196477 6.710100716628344
-1.59923155196477 6.020113867775269 6.710100716628344
-2.0689884067468682 5.34923155196477 6.710100716628344
-2.4151111077974443 4.606969024216349 6.710100716628344
-2.6270828919916163 3.815879555832674 6.710100716628344
-2.6984631039295417 3.0000000000000004 6.710100716628344
-2.6270828919916163 2.184120444167325 6.710100716628344
-2.415111107797445 1.393030975783652 6.710100716628344
-2.0689884067468682 0.6507684480352287 6.710100716628344
-1.5992315519647708 -0.020113867775267913 6.710100716628344
-1.0201138677752688 -0.59923155196477 6.710100716628344
-0.34923155196477307 -1.0689884067468673 6.710100716628344
0.39303097578365254 -1.4151111077974452 6.710100716628344
1.184120444167326 -1.6270828919916163 6.710100716628344
1.9999999999999991 -1.6984631039295417 6.710100716628344
2.815879555832672 -1.6270828919916172 6.710100716628344
3.6069690242163492 -1.4151111077974443 6.710100716628344
4.349231551964771 -1.0689884067468682 6.710100716628344
5.020113867775268 -0.5992315519647713 6.710100716628344
5.5992315519647695 -0.02011386777526969 6.710100716628344
6.068988406746867 0.6507684480352269 6.710100716628344
6.415111107797445 1.3930309757836523 6.710100716628344
6.627082891991616 2.1841204441673256 6.710100716628344
6.698463103929542 2.9999999999999987 6.710100716628344
6.92403876506104 3.0 5.868240888334652
6.84923155196477 3.8550503583141715 5.868240888334652
6.627082891991616 4.684120444167325 5.868240888334652
6.264342659762216 5.462019382530519 5.868240888334652
5.772032533677445 6.165111107797444 5.868240888334652
5.165111107797445 6.772032533677445 5.868240888334652
4.462019382530521 7.264342659762216 5.868240888334652
3.684120444167326 7.627082891991616 5.868240888334652
2.855050358314172 7.84923155196477 5.868240888334652
2.0000000000000004 7.92403876506104 5.868240888334652
1.1449496416858285 7.84923155196477 5.868240888334652
0.31587955583267435 7.627082891991616 5.868240888334652
-0.462019382530519 7.264342659762216 5.868240888334652
-1.1651111077974448 6.772032533677445 5.868240888334652
-1.7720325336774438 6.165111107797445 5.868240888334652
-2.2643426597622156 5.462019382530519 5.868240888334652
-2.6270828919916163 4.684120444167326 5.868240888334652
-2.8492315519647704 3.8550503583141715 5.868240888334652
-2.9240387650610398 3.0000000000000004 5.868240888334652
-2.8492315519647704 2.1449496416858276 5.868240888334652
-2.6270828919916163 1.3158795558326746 5.868240888334652
-2.2643426597622156 0.5379806174694797 5.868240888334652
-1.7720325336774443 -0.1651111077974443 5.868240888334652
-1.1651111077974456 -0.7720325336774438 5.868240888334652
-0.4620193825305221 -1.2643426597622138 5.868240888334652
0.31587955583267524 -1.6270828919916163 5.868240888334652
1.1449496416858285 -1.8492315519647704 5.868240888334652
1.9999999999999991 -1.9240387650610398 5.868240888334652
2.8550503583141698 -1.8492315519647704 5.868240888334652
3.684120444167327 -1.6270828919916163 5.868240888334652
4.462019382530521 -1.2643426597622156 5.868240888334652
5.165111107797444 -0.7720325336774452 5.868240888334652
5.772032533677443 -0.1651111077974461 5.868240888334652
6.264342659762214 0.5379806174694779 5.868240888334652
6.627082891991616 1.315879555832675 5.868240888334652
6.84923155196477 2.144949641685828 5.868240888334652
6.92403876506104 2.9999999999999987 5.868240888334652
7.0 3.0 5.0
6.92403876506104 3.8682408883346517 5.0
6.698463103929543 4.710100716628343 5.0
6.330127018922194 5.5 5.0
5.83022221559489 6.213938048432697 5.0
5.213938048432697 6.83022221559489 5.0
4.5 7.330127018922193 5.0
3.710100716628344 7.698463103929542 5.0
2.868240888334652 7.92403876506104 5.0
2.0000000000000004 8.0 5.0
1.1317591116653485 7.92403876506104 5.0
0.2898992833716565 7.698463103929543 5.0
-0.4999999999999991 7.330127018922194 5.0
-1.2139380484326967 6.83022221559489 5.0
-1.8302222155948895 6.213938048432698 5.0
-2.3301270189221936 5.5 5.0
-2.6984631039295417 4.710100716628345 5.0
-2.9240387650610398 3.8682408883346513 5.0
-3.0 3.0000000000000004 5.0
-2.9240387650610398 2.131759111665348 5.0
-2.6984631039295426 1.2898992833716567 5.0
-2.3301270189221928 0.49999999999999956 5.0
-1.83022221559489 -0.21393804843269626 5.0
-1.2139380484326976 -0.8302222155948895 5.0
-0.5000000000000022 -1.3301270189221919 5.0
0.2898992833716574 -1.6984631039295426 5.0
1.1317591116653483 -1.9240387650610398 5.0
1.9999999999999991 -2.0 5.0
2.86824088833465 -1.9240387650610407 5.0
3.710100716628345 -1.6984631039295417 5.0
4.5 -1.3301270189221928 5.0
5.213938048432697 -0.8302222155948904 5.0
5.830222215594889 -0.21393804843269804 5.0
6.330127018922192 0.4999999999999978 5.0
6.698463103929543 1.289899283371657 5.0
6.92403876506104 2.131759111665348 5.0
7.0 2.9999999999999987 5.0
6.92403876506104 3.0 4.131759111665349
6.84923155196477 3.8550503583141715 4.131759111665349
6.627082891991616 4.684120444167325 4.131759111665349
6.264342659762216 5.462019382530519 4.131759111665349
5.772032533677445 6.165111107797444 4.131759111665349
5.165111107797445 6.772032533677445 4.131759111665349
4.462019382530521 7.264342659762216 4.131759111665349
3.684120444167326 7.627082891991616 4.131759111665349
2.855050358314172 7.84923155196477 4.131759111665349
2.0000000000000004 7.92403876506104 4.131759111665349
1.1449496416858285 7.84923155196477 4.131759111665349
0.31587955583267435 7.627082891991616 4.131759111665349
-0.462019382530519 7.264342659762216 4.131759111665349
-1.1651111077974448 6.772032533677445 4.131759111665349
-1.7720325336774438 6.165111107797445 4.131759111665349
-2.2643426597622156 5.462019382530519 4.131759111665349
-2.6270828919916163 4.684120444167326 4.131759111665349
-2.8492315519647704 3.8550503583141715 4.131759111665349
-2.9240387650610398 3.0000000000000004 4.131759111665349
-2.8492315519647704 2.1449496416858276 4.131759111665349
-2.6270828919916163 1.3158795558326746 4.131759111665349
-2.2643426597622156 0.5379806174694797 4.131759111665349
-1.7720325336774443 -0.1651111077974443 4.131759111665349
-1.1651111077974456 -0.7720325336774438 4.131759111665349
-0.4620193825305221 -1.2643426597622138 4.131759111665349
0.31587955583267524 -1.6270828919916163 4.131759111665349
1.1449496416858285 -1.8492315519647704 4.131759111665349
1.9999999999999991 -1.9240387650610398 4.131759111665349
2.8550503583141698 -1.8492315519647704 4.131759111665349
3.684120444167327 -1.6270828919916163 4.131759111665349
4.462019382530521 -1.2643426597622156 4.131759111665349
5.165111107797444 -0.7720325336774452 4.131759111665349
5.772032533677443 -0.1651111077974461 4.131759111665349
6.264342659762214 0.5379806174694779 4.131759111665349
6.627082891991616 1.315879555832675 4.131759111665349
6.84923155196477 2.144949641685828 4.131759111665349
6.92403876506104 2.9999999999999987 4.131759111665349
6.698463103929543 3.0 3.2898992833716565
6.627082891991617 3.815879555832674 3.2898992833716565
6.415111107797446 4.606969024216348 3.2898992833716565
6.068988406746869 5.34923155196477 3.2898992833716565
5.599231551964771 6.020113867775269 3.2898992833716565
5.020113867775269 6.599231551964771 3.2898992833716565
4.349231551964772 7.068988406746869 3.2898992833716565
3.6069690242163492 7.415111107797445 3.2898992833716565
2.815879555832675 7.627082891991617 3.2898992833716565
2.0000000000000004 7.698463103929543 3.2898992833716565
1.184120444167326 7.627082891991617 3.2898992833716565
0.39303097578365165 7.415111107797446 3.2898992833716565
-0.3492315519647704 7.068988406746869 3.2898992833716565
-1.0201138677752692 6.599231551964771 3.2898992833716565
-1.5992315519647708 6.02011386777527 3.2898992833716565
-2.068988406746869 5.34923155196477 3.2898992833716565
-2.415111107797445 4.606969024216349 3.2898992833716565
-2.627082891991617 3.815879555832674 3.2898992833716565
-2.6984631039295426 3.0000000000000004 3.2898992833716565
-2.627082891991617 2.184120444167325 3.2898992833716565
-2.415111107797446 1.3930309757836519 3.2898992833716565
-2.068988406746869 0.6507684480352283 3.2898992833716565
-1.5992315519647713 -0.020113867775268357 3.2898992833716565
-1.0201138677752697 -0.5992315519647708 3.2898992833716565
-0.3492315519647735 -1.0689884067468673 3.2898992833716565
0.3930309757836523 -1.415111107797446 3.2898992833716565
1.1841204441673259 -1.6270828919916172 3.2898992833716565
1.9999999999999991 -1.6984631039295426 3.2898992833716565
2.8158795558326726 -1.627082891991618 3.2898992833716565
3.6069690242163497 -1.4151111077974452 3.2898992833716565
4.349231551964772 -1.0689884067468691 3.2898992833716565
5.020113867775269 -0.5992315519647717 3.2898992833716565
5.59923155196477 -0.020113867775270133 3.2898992833716565
6.068988406746867 0.6507684480352265 3.2898992833716565
6.415111107797446 1.393030975783652 3.2898992833716565
6.627082891991617 2.1841204441673256 3.2898992833716565
6.698463103929543 2.9999999999999987 3.2898992833716565
6.330127018922194 3.0 2.500000000000001
6.2643426597622165 3.7519186659021764 2.500000000000001
6.068988406746869 4.480990663630119 2.500000000000001
5.75 5.165063509461096 2.500000000000001
5.317069740844692 5.783351996132097 2.500000000000001
4.783351996132097 6.317069740844692 2.500000000000001
4.165063509461097 6.75 2.500000000000001
3.48099066363012 7.068988406746868 2.500000000000001
2.751918665902177 7.2643426597622165 2.500000000000001
2.0000000000000004 7.330127018922194 2.500000000000001
1.2480813340978236 7.2643426597622165 2.500000000000001
0.5190093363698807 7.068988406746869 2.500000000000001
-0.16506350946109594 6.75 2.500000000000001
-0.7833519961320974 6.317069740844692 2.500000000000001
-1.3170697408446919 5.783351996132097 2.500000000000001
-1.7500000000000004 5.165063509461096 2.500000000000001
-2.0689884067468682 4.48099066363012 2.500000000000001
-2.2643426597622165 3.7519186659021764 2.500000000000001
-2.3301270189221936 3.0000000000000004 2.500000000000001
-2.2643426597622165 2.248081334097823 2.500000000000001
-2.068988406746869 1.519009336369881 2.500000000000001
-1.75 0.8349364905389027 2.500000000000001
-1.3170697408446923 0.21664800386790306 2.500000000000001
-0.7833519961320978 -0.31706974084469186 2.500000000000001
-0.1650635094610986 -0.7499999999999991 2.500000000000001
0.5190093363698816 -1.0689884067468691 2.500000000000001
1.2480813340978236 -1.2643426597622165 2.500000000000001
1.9999999999999991 -1.3301270189221936 2.500000000000001
2.751918665902175 -1.2643426597622165 2.500000000000001
3.4809906636301204 -1.0689884067468682 2.500000000000001
4.165063509461097 -0.75 2.500000000000001
4.783351996132097 -0.31706974084469275 2.500000000000001
5.317069740844691 0.21664800386790173 2.500000000000001
5.749999999999999 0.8349364905389014 2.500000000000001
6.068988406746869 1.5190093363698811 2.500000000000001
6.2643426597622165 2.248081334097823 2.500000000000001
6.330127018922194 2.999999999999999 2.500000000000001
5.83022221559489 3.0 1.7860619515673033
5.772032533677445 3.665111107797445 1.7860619515673033
5.59923155196477 4.310013151146925 1.7860619515673033
5.317069740844692 4.915111107797445 1.7860619515673033
4.934120444167325 5.46201938253052 1.7860619515673033
4.462019382530521 5.934120444167325 1.7860619515673033
3.915111107797445 6.317069740844691 1.7860619515673033
3.310013151146925 6.59923155196477 1.7860619515673033
2.665111107797445 6.772032533677445 1.7860619515673033
2.0000000000000004 6.83022221559489 1.7860619515673033
1.3348888922025552 6.772032533677445 1.7860619515673033
0.6899868488530754 6.59923155196477 1.7860619515673033
0.08488889220255591 6.317069740844692 1.7860619515673033
-0.46201938253052033 5.934120444167325 1.7860619515673033
-0.9341204441673252 5.462019382530521 1.7860619515673033
-1.3170697408446919 4.915111107797445 1.7860619515673033
-1.5992315519647704 4.310013151146926 1.7860619515673033
-1.7720325336774447 3.6651111077974448 1.7860619515673033
-1.83022221559489 3.0000000000000004 1.7860619515673033
-1.7720325336774447 2.3348888922025544 1.7860619515673033
-1.5992315519647708 1.6899868488530756 1.7860619515673033
-1.3170697408446914 1.0848888922025546 1.7860619515673033
-0.9341204441673256 0.5379806174694801 1.7860619515673033
-0.4620193825305208 0.0658795558326748 1.7860619515673033
0.08488889220255325 -0.31706974084469053 1.7860619515673033
0.689986848853076 -0.5992315519647708 1.7860619515673033
1.334888892202555 -0.7720325336774447 1.7860619515673033
1.9999999999999993 -0.83022221559489 1.7860619515673033
2.6651111077974434 -0.7720325336774452 1.7860619515673033
3.3100131511469257 -0.5992315519647704 1.7860619515673033
3.915111107797445 -0.3170697408446914 1.7860619515673033
4.46201938253052 0.06587955583267391 1.7860619515673033
4.934120444167325 0.5379806174694788 1.7860619515673033
5.3170697408446905 1.0848888922025532 1.7860619515673033
5.59923155196477 1.6899868488530758 1.7860619515673033
5.772032533677445 2.334888892202555 1.7860619515673033
5.83022221559489 2.999999999999999 1.7860619515673033
5.213938048432698 3.0 1.1697777844051105
5.165111107797446 3.5580944852447485 1.1697777844051105
5.02011386777527 4.099231551964771 1.1697777844051105
4.783351996132097 4.606969024216348 1.1697777844051105
4.462019382530521 5.065879555832675 1.1697777844051105
4.065879555832675 5.462019382530521 1.1697777844051105
3.6069690242163492 5.783351996132097 1.1697777844051105
3.0992315519647713 6.020113867775269 1.1697777844051105
2.558094485244749 6.165111107797446 1.1697777844051105
2.0 6.213938048432698 1.1697777844051105
1.4419055147552515 6.165111107797446 1.1697777844051105
0.9007684480352287 6.02011386777527 1.1697777844051105
0.39303097578365187 5.783351996132097 1.1697777844051105
-0.0658795558326748 5.462019382530521 1.1697777844051105
-0.46201938253052033 5.065879555832675 1.1697777844051105
-0.7833519961320978 4.606969024216348 1.1697777844051105
-1.0201138677752692 4.099231551964772 1.1697777844051105
-1.165111107797446 3.558094485244748 1.1697777844051105
-1.2139380484326976 3.0000000000000004 1.1697777844051105
-1.165111107797446 2.441905514755251 1.1697777844051105
-1.0201138677752697 1.900768448035229 1.1697777844051105
-0.7833519961320974 1.3930309757836508 1.1697777844051105
-0.4620193825305208 0.9341204441673256 1.1697777844051105
-0.06587955583267524 0.5379806174694797 1.1697777844051105
0.39303097578364987 0.21664800386790306 1.1697777844051105
0.9007684480352294 -0.02011386777526969 1.1697777844051105
1.4419055147552515 -0.1651111077974461 1.1697777844051105
1.9999999999999993 -0.2139380484326976 1.1697777844051105
2.558094485244747 -0.1651111077974461 1.1697777844051105
3.099231551964772 -0.020113867775269245 1.1697777844051105
3.6069690242163492 0.21664800386790262 1.1697777844051105
4.065879555832675 0.5379806174694788 1.1697777844051105
4.46201938253052 0.9341204441673243 1.1697777844051105
4.783351996132097 1.3930309757836499 1.1697777844051105
5.02011386777527 1.9007684480352292 1.1697777844051105
5.165111107797446 2.4419055147552515 1.1697777844051105
5.213938048432698 2.999999999999999 1.1697777844051105
4.5 3.0 0.6698729810778064
4.462019382530519 3.4341204441673256 0.6698729810778064
4.34923155196477 3.8550503583141715 0.6698729810778064
4.165063509461096 4.25 0.6698729810778064
3.9151111077974448 4.6069690242163475 0.6698729810778064
3.6069690242163484 4.915111107797445 0.6698729810778064
3.25 5.1650635094610955 0.6698729810778064
2.855050358314172 5.34923155196477 0.6698729810778064
2.434120444167326 5.462019382530519 0.6698729810778064
2.0 5.5 0.6698729810778064
1.5658795558326744 5.462019382530519 0.6698729810778064
1.1449496416858285 5.34923155196477 0.6698729810778064
0.7500000000000007 5.165063509461096 0.6698729810778064
0.39303097578365187 4.915111107797445 0.6698729810778064
0.08488889220255569 4.606969024216348 0.6698729810778064
-0.16506350946109638 4.25 0.6698729810778064
-0.3492315519647704 3.855050358314172 0.6698729810778064
-0.46201938253051944 3.4341204441673256 0.6698729810778064
-0.49999999999999956 3.0000000000000004 0.6698729810778064
-0.46201938253051944 2.565879555832674 0.6698729810778064
-0.34923155196477085 2.1449496416858285 0.6698729810778064
-0.16506350946109594 1.75 0.6698729810778064
0.08488889220255524 1.393030975783652 0.6698729810778064
0.39303097578365165 1.0848888922025557 0.6698729810778064
0.7499999999999991 0.8349364905389045 0.6698729810778064
1.144949641685829 0.6507684480352292 0.6698729810778064
1.5658795558326744 0.5379806174694806 0.6698729810778064
1.9999999999999996 0.5000000000000004 0.6698729810778064
2.4341204441673248 0.5379806174694801 0.6698729810778064
2.8550503583141724 0.6507684480352296 0.6698729810778064
3.25 0.8349364905389041 0.6698729810778064
3.606969024216348 1.084888892202555 0.6698729810778064
3.9151111077974443 1.3930309757836514 0.6698729810778064
4.1650635094610955 1.7499999999999991 0.6698729810778064
4.34923155196477 2.1449496416858285 0.6698729810778064
4.462019382530519 2.565879555832674 0.6698729810778064
4.5 2.9999999999999996 0.6698729810778064
3.7101007166283444 3.0 0.3015368960704583
3.6841204441673265 3.2969558730694235 0.3015368960704583
3.6069690242163492 3.5848888922025552 0.3015368960704583
3.48099066363012 3.855050358314172 0.3015368960704583
3.3100131511469253 4.099231551964771 0.3015368960704583
3.0992315519647713 4.310013151146926 0.3015368960704583
2.8550503583141724 4.48099066363012 0.3015368960704583
2.5848888922025552 4.606969024216349 0.3015368960704583
2.296955873069424 4.684120444167327 0.3015368960704583
2.0 4.710100716628345 0.3015368960704583
1.7030441269305765 4.684120444167327 0.3015368960704583
1.4151111077974448 4.606969024216349 0.3015368960704583
1.144949641685828 4.48099066363012 0.3015368960704583
0.9007684480352285 4.310013151146926 0.3015368960704583
0.6899868488530749 4.099231551964772 0.3015368960704583
0.51900933636988 3.855050358314172 0.3015368960704583
0.3930309757836512 3.5848888922025557 0.3015368960704583
0.31587955583267346 3.2969558730694235 0.3015368960704583
0.2898992833716556 3.0 0.3015368960704583
0.31587955583267346 2.703044126930576 0.3015368960704583
0.393030975783651 2.415111107797445 0.3015368960704583
0.5190093363698802 2.1449496416858276 0.3015368960704583
0.6899868488530747 1.9007684480352287 0.3015368960704583
0.9007684480352283 1.689986848853075 0.3015368960704583
1.1449496416858271 1.5190093363698807 0.3015368960704583
1.4151111077974452 1.393030975783651 0.3015368960704583
1.7030441269305765 1.3158795558326735 0.3015368960704583
1.9999999999999998 1.2898992833716556 0.3015368960704583
2.296955873069423 1.3158795558326732 0.3015368960704583
2.5848888922025557 1.3930309757836512 0.3015368960704583
2.8550503583141724 1.5190093363698802 0.3015368960704583
3.0992315519647713 1.6899868488530745 0.3015368960704583
3.310013151146925 1.900768448035228 0.3015368960704583
3.480990663630119 2.144949641685827 0.3015368960704583
3.6069690242163492 2.415111107797445 0.3015368960704583
3.6841204441673265 2.7030441269305765 0.3015368960704583
3.7101007166283444 2.9999999999999996 0.3015368960704583
2.8682408883346513 3.0 0.07596123493896023
2.8550503583141715 3.150768448035229 0.07596123493896023
2.815879555832674 3.2969558730694235 0.07596123493896023
2.7519186659021764 3.4341204441673256 0.07596123493896023
2.6651111077974448 3.558094485244748 0.07596123493896023
2.558094485244748 3.6651111077974448 0.07596123493896023
2.4341204441673256 3.751918665902176 0.07596123493896023
2.2969558730694235 3.815879555832674 0.07596123493896023
2.150768448035229 3.8550503583141715 0.07596123493896023
2.0 3.8682408883346513 0.07596123493896023
1.849231551964771 3.8550503583141715 0.07596123493896023
1.7030441269305765 3.815879555832674 0.07596123493896023
1.5658795558326744 3.7519186659021764 0.07596123493896023
1.441905514755252 3.6651111077974448 0.07596123493896023
1.3348888922025552 3.558094485244748 0.07596123493896023
1.2480813340978236 3.4341204441673256 0.07596123493896023
1.184120444167326 3.2969558730694235 0.07596123493896023
1.1449496416858285 3.1507684480352287 0.07596123493896023
1.1317591116653487 3.0 0.07596123493896023
1.1449496416858285 2.849231551964771 0.07596123493896023
1.184120444167326 2.7030441269305765 0.07596123493896023
1.2480813340978238 2.5658795558326744 0.07596123493896023
1.3348888922025552 2.441905514755252 0.07596123493896023
1.4419055147552517 2.3348888922025552 0.07596123493896023
1.565879555832674 2.248081334097824 0.07596123493896023
1.7030441269305767 2.184120444167326 0.07596123493896023
1.849231551964771 2.1449496416858285 0.07596123493896023
1.9999999999999998 2.1317591116653487 0.07596123493896023
2.1507684480352287 2.1449496416858285 0.07596123493896023
2.2969558730694235 2.184120444167326 0.07596123493896023
2.4341204441673256 2.248081334097824 0.07596123493896023
2.558094485244748 2.3348888922025552 0.07596123493896023
2.6651111077974448 2.4419055147552515 0.07596123493896023
2.751918665902176 2.565879555832674 0.07596123493896023
2.815879555832674 2.7030441269305765 0.07596123493896023
2.8550503583141715 2.849231551964771 0.07596123493896023
2.8682408883346513 3.0 0.07596123493896023
2.0000000000000004 3.0 0.0
2.0000000000000004 3.0 0.0
2.0000000000000004 3.0 0.0
2.0000000000000004 3.0000000000000004 0.0
2.0000000000000004 3.0000000000000004 0.0
2.0000000000000004 3.0000000000000004 0.0
2.0000000000000004 3.0000000000000004 0.0
2.0 3.0000000000000004 0.0
2.0 3.0000000000000004 0.0
2.0 3.0000000000000004 0.0
2.0 3.0000000000000004 0.0
1.9999999999999998 3.0000000000000004 0.0
1.9999999999999998 3.0000000000000004 0.0
1.9999999999999996 3.0000000000000004 0.0
1.9999999999999996 3.0000000000000004 0.0
1.9999999999999996 3.0000000000000004 0.0
1.9999999999999993 3.0 0.0
1.9999999999999993 3.0 0.0
1.9999999999999993 3.0 0.0
1.9999999999999993 3.0 0.0
1.9999999999999993 3.0 0.0
1.9999999999999996 2.9999999999999996 0.0
1.9999999999999996 2.9999999999999996 0.0
1.9999999999999996 2.9999999999999996 0.0
1.9999999999999998 2.9999999999999996 0.0
1.9999999999999998 2.9999999999999996 0.0
2.0 2.9999999999999996 0.0
2.0 2.9999999999999996 0.0
2.0 2.9999999999999996 0.0
2.0 2.9999999999999996 0.0
2.0000000000000004 2.9999999999999996 0.0
2.0000000000000004 2.9999999999999996 0.0
2.0000000000000004 2.9999999999999996 0.0
2.0000000000000004 2.9999999999999996 0.0
2.0000000000000004 3.0 0.0
2.0000000000000004 3.0 0.0
2.0000000000000004 3.0 0.0

4 37 38 1 0
4 38 39 2 1
4 39 40 3 2
4 40 41 4 3
4 41 42 5 4
4 42 43 6 5
4 43 44 7 6
4 44 45 8 7
4 45 46 9 8
4 46 47 10 9
4 47 48 11 10
4 48 49 12 11
4 49 50 13 12
4 50 51 14 13
4 51 52 15 14
4 52 53 16 15
4 53 54 17 16
4 54 55 18 17
4 55 56 19 18
4 56 57 20 19
4 57 58 21 20
4 58 59 22 21
4 59 60 23 22
4 60 61 24 23
4 61 62 25 24
4 62 63 26 25
4 63 64 27 26
4 64 65 28 27
4 65 66 29 28
4 66 67 30 29
4 67 68 31 30
4 68 69 32 31
4 69 70 33 32
4 70 71 34 33
4 71 72 35 34
4 72 73 36 35
4 74 75 38 37
4 75 76 39 38
4 76 77 40 39
4 77 78 41 40
4 78 79 42 41
4 79 80 43 42
4 80 81 44 43
4 81 82 45 44
4 82 83 46 45
4 83 84 47 46
4 84 85 48 47
4 85 86 49 48
4 86 87 50 49
4 87 88 51 50
4 88 89 52 51
4 89 90 53 52
4 90 91 54 53
4 91 92 55 54
4 92 93 56 55
4 93 94 57 56
4 94 95 58 57
4 95 96 59 58
4 96 97 60 59
4 97 98 61 60
4 98 99 62 61
4 99 100 63 62
4 100 101 64 63
4 101 102 65 64
4 102 103 66 65
4 103 104 67 66
4 104 105 68 67
4 105 106 69 68
4 106 107 70 69
4 107 108 71 70
4 108 109 72 71
4 109 110 73 72
4 111 112 75 74
4 112 113 76 75
4 113 114 77 76
4 114 115 78 77
4 115 116 79 78
4 116 117 80 79
4 117 118 81 80
4 118 119 82 81
4 119 120 83 82
4 120 121 84 83
4 121 122 85 84
4 122 123 86 85
4 123 124 87 86
4 124 125 88 87
4 125 126 89 88
4 126 127 90 89
4 127 128 91 90
4 128 129 92 91
4 129 130 93 92
4 130 131 94 93
4 131 132 95 94
4 132 133 96 95
4 133 134 97 96
4 134 135 98 97
4 135 136 99 98
4 136 137 100 99
4 137 138 101 100
4 138 139 102 101
4 139 140 103 102
4 140 141 104 103
4 141 142 105 104
4 142 143 106 105
4 143 144 107 106
4 144 145 108 107
4 145 146 109 108
4 146 147 110 109
4 148 149 112 111
4 149 150 113 112
4 150 151 114 113
4 151 152 115 114
4 152 153 116 115
4 153 154 117 116
4 154 155 118 117
4 155 156 119 118
4 156 157 120 119
4 157 158 121 120
4 158 159 122 121
4 159 160 123 122
4 160 161 124 123
4 161 162 125 124
4 162 163 126 125
4 163 164 127 126
4 164 165 128 127
4 165 166 129 128
4 166 167 130 129
4 167 168 131 130
4 168 169 132 131
4 169 170 133 132
4 170 171 134 133
4 171 172 135 134
4 172 173 136 135
4 173 174 137 136
4 174 175 138 137
4 175 176 139 138
4 176 177 140 139
4 177 178 141 140
4 178 179 142 141
4 179 180 143 142
4 180 181 144 143
4 181 182 145 144
4 182 183 146 145
4 183 184 147 146
4 185 186 149 148
4 186 187 150 149
4 187 188 151 150
4 188 189 152 151
4 189 190 153 152
4 190 191 154 153
4 191 192 155 154
4 192 193 156 155
4 193 194 157 156
4 194 195 158 157
4 195 196 159 158
4 196 197 160 159
4 197 198 161 160
4 198 199 162 161
4 199 200 163 162
4 200 201 164 163
4 201 202 165 164
4 202 203 166 165
4 203 204 167 166
4 204 205 168 167
4 205 206 169 168
4 206 207 170 169
4 207 208 171 170
4 208 209 172 171
4 209 210 173 172
4 210 211 174 173
4 211 212 175 174
4 212 213 176 175
4 213 214 177 176
4 214 215 178 177
4 215 216 179 178
4 216 217 180 179
4 217 218 181 180
4 218 219 182 181
4 219 220 183 182
4 220 221 184 183
4 222 223 186 185
4 223 224 187 186
4 224 225 188 187
4 225 226 189 188
4 226 227 190 189
4 227 228 191 190
4 228 229 192 191
4 229 230 193 192
4 230 231 194 193
4 231 232 195 194
4 232 233 196 195
4 233 234 197 196
4 234 235 198 197
4 235 236 199 198
4 236 237 200 199
4 237 238 201 200
4 238 239 202 201
4 239 240 203 202
4 240 241 204 203
4 241 242 205 204
4 242 243 206 205
4 243 244 207 206
4 244 245 208 207
4 245 246 209 208
4 246 247 210 209
4 247 248 211 210
4 248 249 212 211
4 249 250 213 212
4 250 251 214 213
4 251 252 215 214
4 252 253 216 215
4 253 254 217 216
4 254 255 218 217
4 255 256 219 218
4 256 257 220 219
4 257 258 221 220
4 259 260 223 222
4 260 261 224 223
4 261 262 225 224
4 262 263 226 225
4 263 264 227 226
4 264 265 228 227
4 265 266 229 228
4 266 267 230 229
4 267 268 231 230
4 268 269 232 231
4 269 270 233 232
4 270 271 234 233
4 271 272 235 234
4 272 273 236 235
4 273 274 237 236
4 274 275 238 237
4 275 276 239 238
4 276 277 240 239
4 277 278 241 240
4 278 279 242 241
4 279 280 243 242
4 280 281 244 243
4 281 282 245 244
4 282 283 246 245
4 283 284 247 246
4 284 285 248 247
4 285 286 249 248
4 286 287 250 249
4 287 288 251 250
4 288 289 252 251
4 289 290 253 252
4 290 291 254 253
4 291 292 255 254
4 292 293 256 255
4 293 294 257 256
4 294 295 258 257
4 296 297 260 259
4 297 298 261 260
4 298 299 262 261
4 299 300 263 262
4 300 301 264 263
4 301 302 265 264
4 302 303 266 265
4 303 304 267 266
4 304 305 268 267
4 305 306 269 268
4 306 307 270 269
4 307 308 271 270
4 308 309 272 271
4 309 310 273 272
4 310 311 274 273
4 311 312 275 274
4 312 313 276 275
4 313 314 277 276
4 314 315 278 277
4 315 316 279 278
4 316 317 280 279
4 317 318 281 280
4 318 319 282 281
4 319 320 283 282
4 320 321 284 283
4 321 322 285 284
4 322 323 286 285
4 323 324 287 286
4 324 325 288 287
4 325 326 289 288
4 326 327 290 289
4 327 328 291 290
4 328 329 292 291
4 329 330 293 292
4 330 331 294 293
4 331 332 295 294
4 333 334 297 296
4 334 335 298 297
4 335 336 299 298
4 336 337 300 299
4 337 338 301 300
4 338 339 302 301
4 339 340 303 302
4 340 341 304 303
4 341 342 305 304
4 342 343 306 305
4 343 344 307 306
4 344 345 308 307
4 345 346 309 308
4 346 347 310 309
4 347 348 311 310
4 348 349 312 311
4 349 350 313 312
4 350 351 314 313
4 351 352 315 314
4 352 353 316 315
4 353 354 317 316
4 354 355 318 317
4 355 356 319 318
4 356 357 320 319
4 357 358 321 320
4 358 359 322 321
4 359 360 323 322
4 360 361 324 323
4 361 362 325 324
4 362 363 326 325
4 363 364 327 326
4 364 365 328 327
4 365 366 329 328
4 366 367 330 329
4 367 368 331 330
4 368 369 332 331
4 370 371 334 333
4 371 372 335 334
4 372 373 336 335
4 373 374 337 336
4 374 375 338 337
4 375 376 339 338
4 376 377 340 339
4 377 378 341 340
4 378 379 342 341
4 379 380 343 342
4 380 381 344 343
4 381 382 345 344
4 382 383 346 345
4 383 384 347 346
4 384 385 348 347
4 385 386 349 348
4 386 387 350 349
4 387 388 351 350
4 388 389 352 351
4 389 390 353 352
4 390 391 354 353
4 391 392 355 354
4 392 393 356 355
4 393 394 357 356
4 394 395 358 357
4 395 396 359 358
4 396 397 360 359
4 397 398 361 360
4 398 399 362 361
4 399 400 363 362
4 400 401 364 363
4 401 402 365 364
4 402 403 366 365
4 403 404 367 366
4 404 405 368 367
4 405 406 369 368
4 407 408 371 370
4 408 409 372 371
4 409 410 373 372
4 410 411 374 373
4 411 412 375 374
4 412 413 376 375
4 413 414 377 376
4 414 415 378 377
4 415 416 379 378
4 416 417 380 379
4 417 418 381 380
4 418 419 382 381
4 419 420 383 382
4 420 421 384 383
4 421 422 385 384
4 422 423 386 385
4 423 424 387 386
4 424 425 388 387
4 425 426 389 388
4 426 427 390 389
4 427 428 391 390
4 428 429 392 391
4 429 430 393 392
4 430 431 394 393
4 431 432 395 394
4 432 433 396 395
4 433 434 397 396
4 434 435 398 397
4 435 436 399 398
4 436 437 400 399
4 437 438 401 400
4 438 439 402 401
4 439 440 403 402
4 440 441 404 403
4 441 442 405 404
4 442 443 406 405
4 444 445 408 407
4 445 446 409 408
4 446 447 410 409
4 447 448 411 410
4 448 449 412 411
4 449 450 413 412
4 450 451 414 413
4 451 452 415 414
4 452 453 416 415
4 453 454 417 416
4 454 455 418 417
4 455 456 419 418
4 456 457 420 419
4 457 458 421 420
4 458 459 422 421
4 459 460 423 422
4 460 461 424 423
4 461 462 425 424
4 462 463 426 425
4 463 464 427 426
4 464 465 428 427
4 465 466 429 428
4 466 467 430 429
4 467 468 431 430
4 468 469 432 431
4 469 470 433 432
4 470 471 434 433
4 471 472 435 434
4 472 473 436 435
4 473 474 437 436
4 474 475 438 437
4 475 476 439 438
4 476 477 440 439
4 477 478 441 440
4 478 479 442 441
4 479 480 443 442
4 481 482 445 444
4 482 483 446 445
4 483 484 447 446
4 484 485 448 447
4 485 486 449 448
4 486 487 450 449
4 487 488 451 450
4 488 489 452 451
4 489 490 453 452
4 490 491 454 453
4 491 492 455 454
4 492 493 456 455
4 493 494 457 456
4 494 495 458 457
4 495 496 459 458
4 496 497 460 459
4 497 498 461 460
4 498 499 462 461
4 499 500 463 462
4 500 501 464 463
4 501 502 465 464
4 502 503 466 465
4 503 504 467 466
4 504 505 468 467
4 505 506 469 468
4 506 507 470 469
4 507 508 471 470
4 508 509 472 471
4 509 510 473 472
4 510 511 474 473
4 511 512 475 474
4 512 513 476 475
4 513 514 477 476
4 514 515 478 477
4 515 516 479 478
4 516 517 480 479
4 518 519 482 481
4 519 520 483 482
4 520 521 484 483
4 521 522 485 484
4 522 523 486 485
4 523 524 487 486
4 524 525 488 487
4 525 526 489 488
4 526 527 490 489
4 527 528 491 490
4 528 529 492 491
4 529 530 493 492
4 530 531 494 493
4 531 532 495 494
4 532 533 496 495
4 533 534 497 496
4 534 535 498 497
4 535 536 499 498
4 536 537 500 499
4 537 538 501 500
4 538 539 502 501
4 539 540 503 502
4 540 541 504 503
4 541 542 505 504
4 542 543 506 505
4 543 544 507 506
4 544 545 508 507
4 545 546 509 508
4 546 547 510 509
4 547 548 511 510
4 548 549 512 511
4 549 550 513 512
4 550 551 514 513
4 551 552 515 514
4 552 553 516 515
4 553 554 517 516
4 555 556 519 518
4 556 557 520 519
4 557 558 521 520
4 558 559 522 521
4 559 560 523 522
4 560 561 524 523
4 561 562 525 524
4 562 563 526 525
4 563 564 527 526
4 564 565 528 527
4 565 566 529 528
4 566 567 530 529
4 567 568 531 530
4 568 569 532 531
4 569 570 533 532
4 570 571 534 533
4 571 572 535 534
4 572 573 536 535
4 573 574 537 536
4 574 575 538 537
4 575 576 539 538
4 576 577 540 539
4 577 578 541 540
4 578 579 542 541
4 579 580 543 542
4 580 581 544 543
4 581 582 545 544
4 582 583 546 545
4 583 584 547 546
4 584 585 548 547
4 585 586 549 548
4 586 587 550 549
4 587 588 551 550
4 588 589 552 551
4 589 590 553 552
4 590 591 554 553
4 592 593 556 555
4 593 594 557 556
4 594 595 558 557
4 595 596 559 558
4 596 597 560 559
4 597 598 561 560
4 598 599 562 561
4 599 600 563 562
4 600 601 564 563
4 601 602 565 564
4 602 603 566 565
4 603 604 567 566
4 604 605 568 567
4 605 606 569 568
4 606 607 570 569
4 607 608 571 570
4 608 609 572 571
4 609 610 573 572
4 610 611 574 573
4 611 612 575 574
4 612 613 576 575
4 613 614 577 576
4 614 615 578 577
4 615 616 579 578
4 616 617 580 579
4 617 618 581 580
4 618 619 582 581
4 619 620 583 582
4 620 621 584 583
4 621 622 585 584
4 622 623 586 585
4 623 624 587 586
4 624 625 588 587
4 625 626 589 588
4 626 627 590 589
4 627 628 591 590
4 629 630 593 592
4 630 631 594 593
4 631 632 595 594
4 632 633 596 595
4 633 634 597 596
4 634 635 598 597
4 635 636 599 598
4 636 637 600 599
4 637 638 601 600
4 638 639 602 601
4 639 640 603 602
4 640 641 604 603
4 641 642 605 604
4 642 643 606 605
4 643 644 607 606
4 644 645 608 607
4 645 646 609 608
4 646 647 610 609
4 647 648 611 610
4 648 649 612 611
4 649 650 613 612
4 650 651 614 613
4 651 652 615 614
4 652 653 616 615
4 653 654 617 616
4 654 655 618 617
4 655 656 619 618
4 656 657 620 619
4 657 658 621 620
4 658 659 622 621
4 659 660 623 622
4 660 661 624 623
4 661 662 625 624
4 662 663 626 625
4 663 664 627 626
4 664 665 628 627
4 666 667 630 629
4 667 668 631 630
4 668 669 632 631
4 669 670 633 632
4 670 671 634 633
4 671 672 635 634
4 672 673 636 635
4 673 674 637 636
4 674 675 638 637
4 675 676 639 638
4 676 677 640 639
4 677 678 641 640
4 678 679 642 641
4 679 680 643 642
4 680 681 644 643
4 681 682 645 644
4 682 683 646 645
4 683 684 647 646
4 684 685 648 647
4 685 686 649 648
4 686 687 650 649
4 687 688 651 650
4 688 689 652 651
4 689 690 653 652
4 690 691 654 653
4 691 692 655 654
4 692 693 656 655
4 693 694 657 656
4 694 695 658 657
4 695 696 659 658
4 696 697 660 659
4 697 698 661 660
4 698 699 662 661
4 699 700 663 662
4 700 701 664 663
4 701 702 665 664
